<mxfile host="app.diagrams.net" agent="Mozilla/5.0 (X11; Linux x86_64) AppleWebKit/537.36 (KHTML, like Gecko) Chrome/117.0.0.0 Safari/537.36" version="25.0.3">
  <diagram name="Page-1" id="Za8fjgpw-LhIuB122g6-">
    <mxGraphModel dx="1466" dy="890" grid="1" gridSize="10" guides="1" tooltips="1" connect="1" arrows="1" fold="1" page="1" pageScale="1" pageWidth="850" pageHeight="1100" math="0" shadow="0">
      <root>
        <mxCell id="0" />
        <mxCell id="1" parent="0" />
        <mxCell id="siI46mT7tejKmy5MpUjG-1" value="AI&lt;div&gt;算&lt;/div&gt;&lt;div&gt;力&lt;/div&gt;&lt;div&gt;与&lt;/div&gt;&lt;div&gt;框&lt;/div&gt;&lt;div&gt;架&lt;/div&gt;" style="rounded=1;whiteSpace=wrap;html=1;" vertex="1" parent="1">
          <mxGeometry x="120" y="390" width="50" height="120" as="geometry" />
        </mxCell>
        <mxCell id="siI46mT7tejKmy5MpUjG-2" value="" style="rounded=1;whiteSpace=wrap;html=1;" vertex="1" parent="1">
          <mxGeometry x="210" y="390" width="300" height="120" as="geometry" />
        </mxCell>
        <mxCell id="siI46mT7tejKmy5MpUjG-3" value="英伟达GPU" style="rounded=1;whiteSpace=wrap;html=1;" vertex="1" parent="1">
          <mxGeometry x="380" y="460" width="120" height="40" as="geometry" />
        </mxCell>
        <mxCell id="siI46mT7tejKmy5MpUjG-4" value="算力" style="rounded=1;whiteSpace=wrap;html=1;" vertex="1" parent="1">
          <mxGeometry x="230" y="460" width="100" height="40" as="geometry" />
        </mxCell>
        <mxCell id="siI46mT7tejKmy5MpUjG-5" value="平台" style="rounded=1;whiteSpace=wrap;html=1;" vertex="1" parent="1">
          <mxGeometry x="230" y="410" width="100" height="40" as="geometry" />
        </mxCell>
        <mxCell id="siI46mT7tejKmy5MpUjG-6" value="开阳云" style="rounded=1;whiteSpace=wrap;html=1;" vertex="1" parent="1">
          <mxGeometry x="380" y="410" width="120" height="40" as="geometry" />
        </mxCell>
        <mxCell id="siI46mT7tejKmy5MpUjG-8" value="AI&lt;div&gt;平&lt;/div&gt;&lt;div&gt;台&lt;/div&gt;" style="rounded=1;whiteSpace=wrap;html=1;" vertex="1" parent="1">
          <mxGeometry x="120" y="240" width="50" height="120" as="geometry" />
        </mxCell>
      </root>
    </mxGraphModel>
  </diagram>
</mxfile>
